<svg xmlns="http://www.w3.org/2000/svg" xmlns:xlink="http://www.w3.org/1999/xlink" version="1.1" x="0px" y="0px" viewBox="0 0 60 75" style="enable-background:new 0 0 60 60;" xml:space="preserve"><path d="M33.2602539,30.9467773c0.6342773,0,1.1499023,0.5161133,1.1499023,1.1503906c0,0.5522461,0.4477539,1,1,1s1-0.4477539,1-1  c0-1.7373047-1.4130859-3.1503906-3.1499023-3.1503906c-1.7373047,0-3.1503906,1.4130859-3.1503906,3.1503906  c0,1.7368164,1.4130859,3.1499023,3.1503906,3.1499023c0.6342773,0,1.1499023,0.5161133,1.1499023,1.1503906  s-0.515625,1.1503906-1.1499023,1.1503906s-1.1503906-0.5161133-1.1503906-1.1503906c0-0.5522461-0.4477539-1-1-1s-1,0.4477539-1,1  c0,1.7373047,1.4130859,3.1503906,3.1503906,3.1503906c1.7368164,0,3.1499023-1.4130859,3.1499023-3.1503906  s-1.4130859-3.1503906-3.1499023-3.1503906c-0.6342773,0-1.1503906-0.515625-1.1503906-1.1499023  S32.6259766,30.9467773,33.2602539,30.9467773z"/><path d="M20.340332,39.5478516c0.5522461,0,1-0.4477539,1-1v-8.6010742c0-0.4321289-0.2773438-0.8149414-0.6879883-0.9501953  c-0.4091797-0.1337891-0.8603516,0.0087891-1.1171875,0.3569336l-1.9902344,2.7016602l-1.7036133-2.6494141  c-0.2397461-0.3730469-0.6977539-0.5439453-1.1230469-0.418457C14.2924805,29.1123047,14,29.5029297,14,29.9467773v8.6010742  c0,0.5522461,0.4477539,1,1,1s1-0.4477539,1-1v-5.1972656l0.6474609,1.0073242  c0.1782227,0.2763672,0.480957,0.4482422,0.8095703,0.4584961c0.3183594,0.0063477,0.6411133-0.1411133,0.8369141-0.40625  l1.0463867-1.4204102v5.5581055C19.340332,39.1000977,19.7880859,39.5478516,20.340332,39.5478516z"/><path d="M23.5219727,42.9482422c0.1435547,0.0717773,0.2963867,0.1054688,0.4462891,0.1054688  c0.3671875,0,0.7202148-0.2021484,0.8955078-0.5527344l3.4736328-6.9472656  c0.2470703-0.4941406,0.046875-1.0947266-0.4472656-1.3417969c-0.4941406-0.2475586-1.0952148-0.0458984-1.3417969,0.4472656  l-0.847168,1.6943359l-1.2128906-1.8046875c-0.3085938-0.4589844-0.9296875-0.5791016-1.3876953-0.2724609  c-0.4584961,0.3081055-0.5805664,0.9296875-0.2724609,1.3876953l1.8450928,2.7453613l-1.5985107,3.1970215  C22.8276367,42.1005859,23.027832,42.7011719,23.5219727,42.9482422z"/><path d="M46.3530273,31.3344727c0-1.3164063-1.0712891-2.3876953-2.3876953-2.3876953h-2.5473633  c-1.3164063,0-2.3876953,1.0712891-2.3876953,2.3876953v5.8256836c0,1.3164063,1.0712891,2.3876953,2.3876953,2.3876953h2.5473633  c0.3638306,0,0.7051392-0.0882568,1.0140381-0.2344971l0.2105713,0.2105713  c0.1953125,0.1953125,0.4511719,0.2929688,0.7070313,0.2929688s0.5117188-0.0976563,0.7070313-0.2929688  c0.390625-0.390625,0.390625-1.0239258,0-1.4140625l-0.3398438-0.3397827  c0.0521851-0.1959229,0.0888672-0.3978271,0.0888672-0.6099243V31.3344727z M44.2709961,35.7773438  c-0.390625-0.390625-1.0234375-0.390625-1.4140625,0s-0.390625,1.0239258,0,1.4140625l0.3565063,0.3564453h-1.7954712  c-0.2138672,0-0.3876953-0.1738281-0.3876953-0.3876953v-5.8256836c0-0.2138672,0.1738281-0.3876953,0.3876953-0.3876953h2.5473633  c0.2138672,0,0.3876953,0.1738281,0.3876953,0.3876953v4.5249023L44.2709961,35.7773438z"/><path d="M53,37.5800781h-3.2792969v-7.6333008c0-0.5522461-0.4477539-1-1-1s-1,0.4477539-1,1v8.6333008c0,0.5522461,0.4477539,1,1,1  H53c0.5522461,0,1-0.4477539,1-1S53.5522461,37.5800781,53,37.5800781z"/><path d="M9.8369141,54h30.5869141c2.1157227,0,3.8374023-1.7216797,3.8374023-3.8374023v-5.8994141c0-0.5522461-0.4477539-1-1-1  s-1,0.4477539-1,1v5.8994141C42.2612305,51.1757813,41.4370117,52,40.4238281,52H9.8369141C8.8242188,52,8,51.1757813,8,50.1630859  V20.7026367c0-0.0957031,0.0192871-0.1875,0.0275269-0.2817383h8.5613403c2.112793,0,3.8320313-1.71875,3.8320313-3.831543  V8.0275269C20.5151367,8.0192871,20.6069336,8,20.7026367,8h19.7216797c1.0126953,0,1.8369141,0.8242188,1.8369141,1.8369141  v14.4262695c0,0.5522461,0.4477539,1,1,1s1-0.4477539,1-1V9.8369141C44.2612305,7.7211914,42.5400391,6,40.4243164,6H20.7026367  C19.3125,6,18.0058594,6.5415039,17.0229492,7.5244141l-9.4985352,9.4985352C6.5415039,18.0058594,6,19.3125,6,20.7026367  v29.4604492C6,52.2788086,7.7211914,54,9.8369141,54z M18.4208984,8.9545898v7.6347656  c0,1.0097656-0.8217773,1.831543-1.8320313,1.831543H8.9545898L18.4208984,8.9545898z"/><text x="0" y="75" fill="#000000" font-size="5px" font-weight="bold" font-family="'Helvetica Neue', Helvetica, Arial-Unicode, Arial, Sans-serif">Created by Vectorstall</text><text x="0" y="80" fill="#000000" font-size="5px" font-weight="bold" font-family="'Helvetica Neue', Helvetica, Arial-Unicode, Arial, Sans-serif">from the Noun Project</text></svg>